<svg width="44" height="44" viewBox="0 0 44 44" fill="none" xmlns="http://www.w3.org/2000/svg">
<path d="M0.5 22C0.5 10.1259 10.1259 0.5 22 0.5C33.8741 0.5 43.5 10.1259 43.5 22C43.5 33.8741 33.8741 43.5 22 43.5C10.1259 43.5 0.5 33.8741 0.5 22Z" fill="#EEC9D3"/>
<path d="M0.5 22C0.5 10.1259 10.1259 0.5 22 0.5C33.8741 0.5 43.5 10.1259 43.5 22C43.5 33.8741 33.8741 43.5 22 43.5C10.1259 43.5 0.5 33.8741 0.5 22Z" stroke="#EEC9D3" stroke-linecap="round"/>
<path d="M22 13.667L24.575 18.8837L30.3333 19.7253L26.1667 23.7837L27.15 29.517L22 26.8087L16.85 29.517L17.8333 23.7837L13.6667 19.7253L19.425 18.8837L22 13.667Z" stroke="#AF4260" stroke-width="2" stroke-linecap="round" stroke-linejoin="round"/>
</svg>
